# xmcd
#
# Track frame offsets:
#	150
#	19229
#	34906
#	50286
#	63316
#	76723
#	92883
#	105218
#	118872
#	132537
#	149935
#	169207
#	181273
#	198811
#
# Disc length: 2861 seconds
#
# Revision: 0
# Processed by: cddbd v1.5.2PL0 Copyright (c) Steve Scherf et al.
# Submitted via: EasyCDDAExtractor 10.0.5.1
#
DISCID=c10b2b0e
DTITLE=Arian Band - Without You With You
DYEAR=1900
DGENRE=
TTITLE0=Qasedak
TTITLE1=Tab
TTITLE2=The Words I Love You
TTITLE3=Lahzeh Ha
TTITLE4=Ki Bejoz Man
TTITLE5=Hanooz Baram Hamooni
TTITLE6=Bi To Ba To
TTITLE7=Man Age Jaye To Boodam
TTITLE8=Nagoo
TTITLE9=Sahel
TTITLE10=Khabeh Naz
TTITLE11=Ey Javidan Iran
TTITLE12=Oon Rooza
TTITLE13=Nagoo remix ~ji
EXTD=
EXTT0=
EXTT1=
EXTT2=
EXTT3=
EXTT4=
EXTT5=
EXTT6=
EXTT7=
EXTT8=
EXTT9=
EXTT10=
EXTT11=
EXTT12=
EXTT13=
PLAYORDER=
